<?xml version="1.0" encoding="UTF-8"?>
<svg id="Layer_1" xmlns="http://www.w3.org/2000/svg" version="1.1" viewBox="0 0 321.85 62.44">
  <!-- Generator: Adobe Illustrator 29.8.4, SVG Export Plug-In . SVG Version: 2.1.1 Build 6)  -->
  <defs>
    <style>
      .st0 {
        fill: #fff;
      }

      .st1 {
        fill: #92aa61;
      }

      .st2 {
        fill: #4e7938;
      }
    </style>
  </defs>
  <path class="st2" d="M24.59.71h99.57v43.59c0,9.2-7.47,16.67-16.67,16.67H1.17V24.14C1.17,11.21,11.67.71,24.59.71Z"/>
  <path class="st1" d="M44.41,21.92c1.29-2.85,2.08-5.87,2.76-8.91.05-.25-.01-.52-.02-.71-3.18,2.03-6.35,3.96-9.43,6.05-1.43.97-2.81,2.08-3.95,3.37-1.44,1.61-2.25,3.51-2.67,5.53.4-.4.8-.77,1.19-1.09,3.23-2.69,7.56-4.23,11.89-4.23.08,0,.15,0,.23,0"/>
  <path class="st1" d="M26.19,40.14c-1.51-.18-2.71-.95-3.42-2.38.23-.02.46-.06.69-.05,1.04.04,2.08.1,3.11.14.02-.51.06-1,.13-1.48-.04.02-.08.04-.12.06-.28.12-.62.21-.91.17-1.76-.26-3.53-.52-5.28-.87-1.88-.38-3.74-.85-5.75-1.31-.15.69-.34,1.4-.4,2.11-.02.19.37.57.6.6,1.21.14,2.45.11,3.65.29,1.61.23,3.43-.36,4.54,1.74.64,1.21,2.11,1.99,3.18,2.98.41.38.78.79,1.16,1.2-.39-.97-.64-2.01-.76-3.13-.14-.02-.29-.04-.44-.06"/>
  <path class="st1" d="M36.61,50c-2.52-.28-4.8-1.25-6.54-2.8-1.15-1.03-2.03-2.27-2.63-3.69l-.04.03c-.78-.62-1.56-1.25-2.5-2.01.09,3.39,1.9,5.51,4.18,7.3,1.02.8,2.16,1.48,3.34,2.04,1.84.88,3.75,1.62,5.64,2.42.05-.08.09-.16.14-.24-.04-.09-.08-.18-.12-.27-.48-.93-.97-1.85-1.46-2.77"/>
  <path class="st1" d="M70.07,25.05c.12-.11.24-.22.35-.32l-.31-.12-.05.22c0,.07,0,.15,0,.23"/>
  <path class="st1" d="M70.08,24.82l.05-.22-.04-.02c0,.08,0,.15,0,.23"/>
  <path class="st1" d="M68.62,30.92c-1.46.49-2.76.21-4.01-.79,1.29-.6,2.48-1.2,3.71-1.72.31-.13.73-.08,1.09-.03,1.09.14,2.18.42,3.27.46,2.94.1,5.88.08,8.83.16l-11.08-4.28c-.12.1-.24.21-.35.32,0,.76-.08,1.56-.89,1.95-2.75,1.32-5.09,2.61-7.85,3.9l.44.42c.59-.26,1.19-.52,1.78-.78.13-.06.37-.03.47.06,1.36,1.13,2.99,1.41,4.68,1.55.33-.62.71-1.13,1.07-1.56-.38.09-.77.2-1.15.33"/>
  <path class="st1" d="M95.13,16.59c-2.99.19-5.84,1.06-8.81,2.15.26-.44.39-.68.53-.91,1.49.54,3.71-3.01,3.32-5.74-.47.37-.94.74-1.39,1.11-1.48,1.18-2.82,2.41-2.6,4.6.04.41-.35,1.04-.72,1.27-1.83,1.14-3.8,2.05-5.55,3.28-.06.04-.12.08-.18.12.25.05.5.1.74.17,3.27-2.49,6.63-4.53,14.67-6.06"/>
  <path class="st1" d="M87.16,27.65c1.12-.64,2.22-1.36,3.22-2.17.6-.49,1-1.23,1.49-1.85-1.3.04-2.44.32-3.59.43-1.38.12-2.52.57-3.38,1.49.55.71.99,1.51,1.32,2.41.32-.02.62-.11.94-.3"/>
  <path class="st1" d="M70.56,22.71c.16.54.2,1.12.21,1.73.47-.38.96-.7,1.46-.98l-1.68-.75Z"/>
  <path class="st1" d="M98.26,20.95c.78-.12,1.62-.19,2.29-.55.93-.52,1.8-1.21,2.54-1.98.67-.68,1.13-1.57,1.68-2.36-1.3.13-2.45.46-3.61.65-1.95.32-3.32,1.3-4.15,3.12-.36.79-.87,1.57-1.92,1.57-1.08,0-2.17-.04-3.25-.08-2.89-.11-5.73.28-8.54.87-.5.1-1,.22-1.5.33-.33.07-.66.13-1.04.2.4.12.79.27,1.16.44,6.53-1.72,13.27-2.06,20.36-.06,0-.1,0-.2.01-.3-1.97-.45-3.94-.9-5.97-1.37.45-.32.87-.63,1.17-.84.31.15.56.39.77.36"/>
  <path class="st1" d="M77.14,21.04s.1.05.15.08c-.17.38-.35.75-.55,1.2.29-.01.58-.02.88-.03,1.71-.68,2.68-2.03,3.48-3.58.74-1.43,1.82-5.67,1.4-6.52-.29.23-.57.46-.85.7-1.34,1.14-2.74,2.23-4.01,3.44-1.57,1.5-2.09,3.44-2.22,5.57,0,.17-.03.35-.06.54.34-.05.7-.09,1.07-.12.24-.43.48-.86.73-1.29"/>
  <path class="st1" d="M76.6,22.59c.36-.08.7-.18,1.01-.3-.3,0-.59.01-.88.03-.04.09-.08.18-.13.28"/>
  <path class="st1" d="M70.11,27.92c1.93.11,3.87.25,5.8.31,1.82.06,3.65.04,5.47.08.45,0,.85-.06,1.21-.19l-6.65-2.99c-1.96.76-3.9,1.62-5.83,2.55,0,.08,0,.16,0,.24"/>
  <path class="st1" d="M45.18,40.46c-.68.68-1.45,1.23-2.26,1.62.68.21,1.36.4,2.04.59.67.19,1.36.39,2.03.59.24.07.44.22.62.34.07.05.14.1.22.15l.27.17-.35.63-4.16-1.16c.98,1.56,2.34,2.76,4.15,3.63,2-1.19,3.75-2.81,5.06-4.85-.74-.35-1.45-.64-2.14-.87-1.64-.54-3.43-.82-5.48-.84"/>
  <path class="st1" d="M52.5,34.57c.43-.12.86-.23,1.3-.34.44-.11.94-.21,1.43-.24,0-.11,0-.23.01-.34-.91.33-1.83.63-2.74.92"/>
  <path class="st1" d="M48.11,30.13c-.05.68-.1,1.37-.21,2.06-.03.18-.06.35-.1.51.91-1.01,1.86-2.06,2.46-3.01l.18-.29.67.45-1.01,2.1h.02s.07-.03.1-.04c1.68-.43,3.11-1.29,4.36-2.66-.82-2.38-2.39-4.16-4.37-5.3-.92,1.07-1.51,2.24-1.79,3.54-.19.85-.26,1.76-.32,2.64"/>
  <polygon class="st1" points="34.6 36.69 34.61 36.78 34.61 36.69 34.6 36.69"/>
  <path class="st1" d="M34.55,37.53c-.01.08-.03.15-.04.24h-.06s.05.04.05.04c-.02.19-.03.39,0,.59l.02.13.05.04c-.04-.33-.05-.67-.04-1.04"/>
  <path class="st1" d="M50.27,23.4h0c.1.05.2.11.3.17-.1-.06-.2-.11-.3-.17"/>
  <path class="st1" d="M59.48,16.75h0c-.24.19-.44.35-.65.5-.98.72-1.96,1.45-2.95,2.17-1.23.91-2.46,1.81-3.69,2.72-.62.46-1.16.93-1.63,1.43h0c.61.36,1.18.77,1.7,1.24,1.22,1.1,2.13,2.46,2.72,4.02h0c.61-.74,1.18-1.61,1.72-2.61,1.26-2.37,2.12-5.02,2.61-8.11.07-.42.12-.85.17-1.35"/>
  <path class="st1" d="M55.11,29.19h0c-.04-.12-.09-.25-.13-.37h0c.05.12.09.24.13.37"/>
  <path class="st1" d="M50.57,23.58h0c-.1-.06-.2-.12-.3-.17h0c.1.06.2.12.3.17"/>
  <path class="st1" d="M59.91,15.97c-.57.45-.91.74-1.27,1.01-2.21,1.63-4.43,3.26-6.64,4.89-.63.47-1.21.97-1.72,1.53.1.05.2.11.3.17.47-.5,1.01-.97,1.63-1.43,1.23-.91,2.46-1.82,3.69-2.72.98-.72,1.96-1.45,2.95-2.17.21-.15.41-.31.65-.51h0c-.06.5-.11.94-.17,1.36-.5,3.09-1.35,5.74-2.61,8.11-.54,1-1.1,1.87-1.72,2.61.05.12.09.24.13.37.72-.84,1.34-1.8,1.88-2.82,1.36-2.56,2.19-5.34,2.65-8.21.1-.65.16-1.3.27-2.18"/>
  <path class="st1" d="M55.11,29.19h0c-.04-.12-.09-.25-.13-.37.05.12.09.24.13.37"/>
  <path class="st1" d="M57.25,47.67l.63-2.94c-.68-.45-1.37-.89-2.06-1.31-.77-.47-1.56-.91-2.38-1.32-.03.04-.05.09-.08.13-.03.05-.06.1-.09.16h0c-.84,1.33-1.89,2.53-3.15,3.57-.57.48-1.19.91-1.83,1.31h0c-.09.06-.18.11-.26.16l-.09.05c.2.09.4.18.61.26,3.78,1.48,7.66,1.6,11.57,1.13-.84-.3-1.68-.64-2.5-1.03l-.36-.17Z"/>
  <path class="st1" d="M53.26,42.39c.03-.05.06-.1.09-.16-.03.05-.06.1-.1.15h0Z"/>
  <path class="st1" d="M48.27,47.27c-.09.05-.17.11-.26.16.09-.05.18-.1.26-.15h0Z"/>
  <path class="st1" d="M57.71,34.57c.05-.08.1-.16.15-.24.68.31,1.36.62,2.04.93l.17-.8c-1.01-.48-2.16-.76-3.38-.89,1.34-.59,2.65-1.17,3.94-1.74l.19-.9c-.45.21-.89.41-1.33.62-1.23.59-2.48,1.1-3.74,1.57,0,.05,0,.1,0,.15,0,.07,0,.14,0,.21,0,.17,0,.35-.01.52v.07c0,.09,0,.18-.01.27.32.01.62.07.88.2.72.36,1.09,1.42,1.55,2.09-.45,0-.82-.11-1.09.01-1.57.7-2.59,2.81-2.05,4.45.19.58.7,1.19,1.23,1.5.7.42,1.4.42,2.1.03l1.22-5.73c-.93-.62-1.26-1.52-1.84-2.31"/>
  <path class="st1" d="M67.97,36.55l-1.29,5.37c1.09-.22,1.92-.98,2.18-2.37.2-1.05-.24-1.99-.82-2.89-.02-.04-.05-.07-.07-.11"/>
  <path class="st1" d="M62.43,34.77c-.29.16-.48.52-.69.77-.5-.44-1.06-.8-1.66-1.09l-.17.8c.44.2.88.4,1.32.6-.44,1.1-.4,1.95-.05,2.8.76,1.88,2.21,2.99,4.13,3.28.32.05.64.06.94.04l1.35-5.91c-1.3-1.41-3.61-2.16-5.16-1.3"/>
  <path class="st1" d="M55.74,33.26s0-.1,0-.14c0,.05,0,.1,0,.14"/>
  <path class="st1" d="M55.74,33.47c0-.07,0-.14,0-.21,0,.07,0,.14,0,.21Z"/>
  <polygon class="st1" points="55.73 33.99 55.73 34.06 55.73 33.99 55.73 33.99"/>
  <g>
    <path class="st1" d="M48.11,30.13c-.05.68-.1,1.37-.21,2.06-.03.18-.06.35-.1.51.91-1.01,1.86-2.06,2.46-3.01l.18-.29.67.45-1.01,2.1h.02s.07-.03.1-.04c1.85-.47,3.4-1.47,4.74-3.09-.58-1.56-1.49-2.92-2.72-4.02-.52-.47-1.09-.87-1.7-1.23-1.11,1.17-1.81,2.47-2.13,3.91-.19.85-.26,1.76-.32,2.64"/>
    <path class="st1" d="M48.11,27.42c-.34,1.54-.29,3.16-.54,4.72-.12.79-.35,1.52-.71,2.14,1.26-1.48,2.8-3.01,3.69-4.4.05.03.1.07.15.1-.36.75-.72,1.5-1.1,2.3.23.03.32.06.4.05.11-.01.22-.05.33-.08,2.03-.52,3.56-1.62,4.79-3.05-.04-.12-.09-.24-.13-.36-1.34,1.62-2.89,2.62-4.73,3.09-.04,0-.07.02-.1.03h-.02s1.01-2.09,1.01-2.09l-.67-.45-.18.28c-.61.94-1.55,1.99-2.46,3.01.04-.17.07-.34.1-.51.11-.68.16-1.38.21-2.06.07-.88.14-1.79.32-2.64.32-1.44,1.02-2.74,2.13-3.91-.1-.06-.19-.12-.29-.17-1.05,1.13-1.82,2.44-2.16,4.01"/>
    <path class="st1" d="M41.92,40.62c-2.2.22-3.96-.81-5.82-1.9-.28-.16-.55-.32-.84-.49h-.02c.21.16.42.33.62.5.48.41.94.79,1.49,1.09,1.25.68,2.64,1.28,4.13,1.79,1.14.4,2.33.73,3.48,1.06.67.19,1.36.39,2.03.59.24.07.44.22.62.34.07.05.14.1.22.15l.27.17-.35.63-4.16-1.16c1.07,1.72,2.61,2.99,4.69,3.88.64-.4,1.26-.84,1.83-1.31,1.25-1.04,2.3-2.24,3.15-3.57-.9-.45-1.76-.8-2.59-1.08-2.46-.82-5.23-1.04-8.74-.69"/>
    <path class="st1" d="M53.43,42.1h0s-.05.09-.08.13c.03-.04.06-.09.08-.13"/>
    <path class="st1" d="M52.5,34.57c.43-.12.86-.23,1.3-.34.6-.14,1.29-.28,1.93-.25,0-.17.01-.34.01-.52-1.08.4-2.16.76-3.24,1.1"/>
    <path class="st1" d="M55.72,34.33c0-.09,0-.18.01-.26,0,.09,0,.18-.01.26h0Z"/>
    <path class="st1" d="M47.93,47.48l.09-.05s-.06.04-.09.05h0Z"/>
    <path class="st1" d="M53.8,34.24c-.43.1-.87.22-1.3.34,1.08-.34,2.16-.7,3.24-1.1,0-.07,0-.14,0-.21,0-.05,0-.1,0-.14-2.04.76-4.13,1.39-6.23,2-.92.26-3.15.71-3.98.89.16-.26.35-.52.55-.78-.45.4-1.01.7-1.72.88-1.36.34-2.76.57-4.15.66-1.88.13-3.37.2-5.26.25.01.36-.2.86-.11,1.32.82.62,1.45,1.3,2.35,1.78,1.33.72,2.74,1.32,4.18,1.82,1.81.63,3.69,1.09,5.53,1.66.27.08.51.3.76.45-.02.04-.04.08-.06.12-1.56-.44-3.12-.87-4.69-1.31,1.16,2.25,2.92,3.69,5.03,4.63.03-.02.06-.04.09-.05.09-.05.17-.1.26-.16-2.07-.89-3.62-2.16-4.69-3.88l4.16,1.16.35-.63-.27-.17c-.07-.05-.15-.1-.22-.15-.18-.13-.38-.27-.62-.34-.68-.2-1.37-.4-2.03-.59-1.15-.33-2.34-.66-3.48-1.06-1.49-.51-2.88-1.12-4.13-1.79-.56-.3-1.01-.69-1.49-1.09-.2-.17-.4-.34-.61-.51h.02c.28.17.56.34.84.5,1.86,1.09,3.62,2.12,5.82,1.9,3.5-.35,6.28-.13,8.74.69.83.28,1.69.64,2.59,1.08.03-.05.07-.1.1-.15.03-.04.05-.09.08-.13-.87-.43-1.76-.81-2.66-1.11-2.87-.95-5.86-1-8.88-.7-2.41.24-4.3-1.11-6.46-2.34.35-.06.45-.08.55-.1,3.37-.4,6.76-.65,10.1-1.24,2.64-.47,5.19-1.42,7.8-2.04.57-.14,1.24-.26,1.84-.24,0-.09,0-.18.01-.27v-.07c-.64-.03-1.33.1-1.93.25"/>
    <path class="st1" d="M67.97,36.55l-1.29,5.37c1.09-.22,1.92-.98,2.18-2.37.2-1.05-.24-1.99-.82-2.89-.02-.04-.05-.07-.07-.11"/>
  </g>
  <polygon class="st1" points="69.03 32.46 69.02 32.48 69.04 32.46 69.03 32.46"/>
  <path class="st1" d="M69.16,32.74l-.03.06c.9.09,1.78.38,2.67.57-.01.04-.03.08-.04.12-.86-.09-1.72-.18-2.75-.28l.15.27c.08.15.12.24.15.29.05.1.07.13.14.23.46.58.96,1.06,1.48,1.46,1.73,1.21,3.81,1.6,5.98,1.66,1.7.05,3.42-.21,5.12-.41.86-.1,1.95-.45,2.81-.64l-.9-.56c-1.66-.92-3.35-1.8-4.98-2.76-2.61-1.54-5.2-2.1-8.02-1.64-.32.05-.61.2-.84.43h0c-.28.28-.59.59-.82.97"/>
  <path class="st0" d="M109.46,29.34c-1.29-.59-2.85-.75-4.14-.75-4.03,0-7.36,2.47-8.65,7.2-1.13,4.56-.27,7.09,3.81,7.04,3.6,0,6.29-2.85,7.3-6.77l1.67-6.71ZM114.19,40.73c-.43,2.2-.91,3.38,1.77,3.22l-1.02,4.83c-3.65.75-8.75,1.02-7.63-4.3-2.15,3.22-5.85,4.99-9.29,4.99-7.95-.16-10.42-6.34-8.81-13.69,2.15-8.75,9.13-13.37,17.78-13.21,3.81.05,7.36.97,10.53,2.42l-3.33,15.74Z"/>
  <path class="st0" d="M17.64,28.86h8.43s1.18-5.64,1.18-5.64h-8.43s1.72-8.06,1.72-8.06h-6.02s-2.52,8.06-2.52,8.06h-3.42s-1.07,5.16-1.07,5.16l2.78.48-2.15,10.21c-2.31,10.69,5.37,12.03,14.77,9.61l.48-5.69c-4.62,1.61-9.02,1.29-7.89-4.08l2.15-10.04Z"/>
  <path class="st0" d="M47.68,33.84c.02.31.01.64-.01.99,0,.14-.02.27-.04.4.69-.15,1.38-.31,1.79-.42,1.9-.55,3.87-1.14,5.82-1.85-.02-1.06-.16-2.05-.41-2.96-1.28,1.3-2.73,2.14-4.42,2.58l-.09.02c-.09.02-.18.05-.29.06"/>
  <path class="st0" d="M50.84,35.74c-1.14.33-2.31.67-3.49.94-.34,1.21-.89,2.26-1.58,3.12,1.88.06,3.56.35,5.11.87.74.25,1.49.56,2.28.93,1.12-1.94,1.85-4.25,2.04-6.93-.43.04-.87.13-1.24.22-1.04.25-2.1.56-3.12.86"/>
  <path class="st0" d="M42.6,43.01l-.2-.38c-.15-.05-.3-.1-.45-.14-.97.33-1.95.46-2.88.39-2.27-.14-4.18-1.6-4.49-4.31l-.05-.04-.02-.13c-.04-.2-.03-.4,0-.59l-.05-.03h.06c0-.09.02-.17.04-.25,0-.11,0-.23.02-.34.01-.14.03-.27.04-.4v-.09s0,0,0,0c.65-5.3,4.95-7.72,8.54-7.56,1.86.11,3.4,1.06,4.11,2.77.09-.6.13-1.22.18-1.82.07-.9.14-1.83.34-2.73.3-1.36.91-2.59,1.84-3.71-1.63-.8-3.49-1.22-5.45-1.22-8,0-17.13,5.53-17.13,16.33,0,7.09,5.26,10.85,11.12,10.85,3.03,0,6.14-.72,8.87-2.17-1.98-1.04-3.44-2.5-4.43-4.41"/>
  <path class="st0" d="M84.89,36.34c-.26.06-.53.12-.79.19-.59.15-1.19.3-1.8.37-.29.03-.58.07-.86.1-1.09.13-2.2.27-3.32.3-1.56,4.32-4.23,6.33-7.84,6.33-1.45,0-2.79-.32-4.14-.81l1.4-6.5c.21-1.23.72-2.62,1.48-3.85v-.02h.01c1.18-1.88,2.97-3.38,5.27-3.38,2.55,0,3.99,1.19,4.44,3.06.19.1.39.21.58.33,1.09.65,2.23,1.27,3.33,1.86l2.79,1.89-.57.13ZM77.69,22.79c-3.71,0-6.02.97-8.54,3.97l3.55-16.65h-6.93s-7.95,37.27-7.95,37.27c3.06,1.45,6.55,2.36,10.42,2.42,7.89.16,15.63-3.28,17.78-13.54,1.83-9.4-2.74-13.48-8.33-13.48"/>
  <path d="M132.08,8.3v-1.8c0-.23.12-.35.35-.35h9.93c.25,0,.38.12.38.35v1.8c0,.26-.12.39-.38.39h-3.63v11.11c0,.25-.12.38-.36.38h-2.04c-.24,0-.36-.13-.36-.38v-11.11s-3.54,0-3.54,0c-.24,0-.35-.13-.35-.39"/>
  <path d="M153.82,19.8v-5.68s-6.3,0-6.3,0v5.68c0,.25-.14.38-.41.38h-1.99c-.24,0-.35-.13-.35-.38V6.55c0-.26.12-.4.35-.4h2.05c.07,0,.15.03.23.08.08.05.13.15.13.3v4.94s6.3,0,6.3,0v-4.91c0-.26.12-.4.35-.4h2.05c.07,0,.15.03.23.08.07.05.11.15.11.3v13.28c0,.25-.13.38-.4.38h-1.99c-.24,0-.35-.13-.35-.38"/>
  <path d="M159.37,19.8V6.52c0-.25.12-.38.35-.38h9.25c.25,0,.38.13.38.38v1.83c0,.25-.13.38-.38.38h-6.85v2.86s5.22,0,5.22,0c.28,0,.42.13.42.39v1.8c0,.25-.14.38-.42.38h-5.22v3.46s7.02,0,7.02,0c.26,0,.4.13.4.38v1.82c0,.25-.13.38-.4.38h-9.42c-.24,0-.35-.13-.35-.38"/>
  <path d="M188.36,13.16c0-.86-.2-1.63-.59-2.31-.39-.69-.92-1.24-1.58-1.65-.67-.41-1.43-.61-2.29-.61s-1.61.2-2.28.61c-.67.41-1.19.96-1.58,1.65-.38.68-.57,1.45-.57,2.31s.19,1.62.57,2.31c.39.68.91,1.23,1.58,1.64.67.41,1.43.61,2.28.61s1.62-.2,2.29-.61c.67-.41,1.19-.96,1.58-1.64.39-.69.59-1.46.59-2.31M191.14,13.16c0,1-.19,1.94-.57,2.81-.37.87-.89,1.63-1.56,2.3-.66.66-1.43,1.18-2.31,1.55-.87.37-1.81.56-2.8.56s-1.94-.19-2.81-.56c-.86-.37-1.63-.89-2.29-1.55-.65-.67-1.17-1.43-1.54-2.3-.37-.87-.56-1.81-.56-2.81s.18-1.94.56-2.81c.37-.87.88-1.64,1.54-2.3.66-.66,1.42-1.17,2.29-1.55.87-.37,1.81-.56,2.81-.56s1.93.19,2.8.56c.88.37,1.65.89,2.31,1.55.66.66,1.19,1.43,1.56,2.3.38.86.57,1.8.57,2.81"/>
  <path d="M193.54,19.75V6.55c0-.11.04-.21.11-.3.08-.08.19-.12.32-.12h1.92c.26,0,.4.14.42.42v11.06s5.52,0,5.52,0c.11,0,.21.04.3.11.08.08.13.18.13.32v1.72c0,.27-.14.41-.42.42h-7.88c-.27,0-.41-.14-.41-.42"/>
  <path d="M204.39,19.8V6.55c0-.26.13-.4.38-.4h2.04c.24,0,.36.13.36.4v13.25c0,.25-.12.38-.36.38h-2.04c-.25,0-.38-.13-.38-.38"/>
  <path d="M221.98,6.56l-5.21,13.28c-.09.24-.25.36-.48.36h-1.58c-.25,0-.41-.12-.5-.36l-5.21-13.29c-.05-.14-.06-.25-.01-.31.05-.06.14-.09.25-.09h2.16c.23,0,.38.12.47.35l3.62,9.79,3.61-9.79c.07-.23.23-.35.45-.35h2.2c.11,0,.2.03.25.1.06.07.06.17-.01.31"/>
  <path d="M223.8,19.8V6.52c0-.25.12-.38.35-.38h9.25c.25,0,.38.13.38.38v1.83c0,.25-.13.38-.38.38h-6.85v2.86s5.22,0,5.22,0c.28,0,.42.13.42.39v1.8c0,.25-.14.38-.42.38h-5.22v3.46s7.02,0,7.02,0c.26,0,.4.13.4.38v1.82c0,.25-.13.38-.4.38h-9.42c-.24,0-.35-.13-.35-.38"/>
  <path d="M247.59,8.41h-2.99v3.42s2.97,0,2.97,0c.55,0,.99-.15,1.32-.45.33-.31.5-.73.5-1.26s-.17-.93-.5-1.24c-.33-.31-.76-.47-1.3-.47M248.14,14.01h-3.54v3.86s3.57,0,3.57,0c.39,0,.72-.1.99-.29.26-.19.47-.42.6-.7.14-.28.2-.57.2-.88,0-.55-.19-1.02-.56-1.41-.37-.39-.8-.58-1.27-.58M241.84,19.8V6.5c0-.23.12-.35.35-.35h6.11c.72,0,1.37.18,1.94.52.58.34,1.04.81,1.38,1.4.33.59.5,1.26.5,1.99,0,1.11-.36,1.98-1.08,2.61.54.36.96.85,1.27,1.47.31.61.47,1.27.47,1.98s-.18,1.38-.52,2c-.34.61-.8,1.11-1.39,1.49-.58.38-1.23.57-1.94.57h-6.73c-.24,0-.35-.13-.35-.38"/>
  <path d="M260.37,8.58h-2.96v4.23s2.96,0,2.96,0c.65,0,1.19-.2,1.63-.59.44-.39.66-.9.66-1.53s-.22-1.09-.66-1.5c-.43-.41-.98-.61-1.63-.61M254.66,19.8V6.52c0-.1.03-.18.08-.26.06-.07.15-.11.27-.11h6.02c.86,0,1.63.22,2.3.65.67.43,1.2,1.01,1.57,1.72.38.7.57,1.45.57,2.24s-.22,1.55-.66,2.25c-.44.7-1.01,1.25-1.72,1.66l2.57,5.11c.05.09.06.18.01.27-.05.09-.13.13-.26.13h-2.43c-.19,0-.34-.1-.43-.32l-2.25-4.54h-2.88v4.48c0,.25-.12.38-.38.38h-2.02c-.24,0-.35-.13-.35-.38"/>
  <path d="M272.69,9.78l-2.03,5.35h4s-1.98-5.35-1.98-5.35ZM266.09,19.78l5.34-13.28c.11-.23.27-.35.47-.35h1.59c.23,0,.38.12.47.35l5.33,13.28c.06.13.06.23,0,.3-.05.07-.14.1-.26.1h-2.06c-.23,0-.39-.11-.48-.34l-.91-2.26h-5.8s-.89,2.26-.89,2.26c-.09.23-.25.34-.48.34h-2.07c-.28,0-.36-.13-.25-.4"/>
  <path d="M280.87,19.75V6.56c0-.11.03-.21.1-.29.07-.08.17-.12.31-.12h2.22c.1,0,.2.02.31.07.1.04.19.11.24.22l6.22,8.94V6.43c.04-.11.09-.19.17-.23.08-.04.16-.06.24-.06h1.91c.1,0,.2.04.3.11.1.08.16.18.16.3v13.19c0,.28-.15.42-.45.42h-1.87c-.15,0-.27-.03-.34-.08-.07-.06-.14-.14-.22-.23l-6.55-9.45v9.34c0,.28-.13.42-.42.42h-1.91c-.27,0-.41-.14-.41-.42"/>
  <path d="M305.06,16.9c.13-.1.24-.15.34-.15s.18.05.26.15l.94,1.62c.17.2.14.38-.09.55-.54.4-1.15.73-1.82.97-.67.23-1.43.35-2.29.35-.99,0-1.93-.19-2.82-.56-.88-.37-1.65-.89-2.31-1.56-.66-.67-1.18-1.44-1.56-2.31-.38-.88-.57-1.81-.57-2.81s.19-1.95.57-2.82c.38-.87.9-1.63,1.56-2.29.66-.65,1.43-1.16,2.31-1.54.89-.37,1.83-.56,2.82-.56.86,0,1.62.12,2.3.35.67.23,1.29.54,1.83.94.1.09.15.18.15.27,0,.09-.01.15-.03.2l-1,1.69c-.05.08-.13.11-.23.11-.08,0-.18-.03-.31-.09-.44-.28-.87-.49-1.3-.64-.43-.15-.89-.23-1.41-.23-.84,0-1.6.2-2.28.6-.68.4-1.21.95-1.6,1.65-.39.69-.58,1.46-.58,2.32s.19,1.62.58,2.32c.39.71.93,1.27,1.6,1.69.67.43,1.43.64,2.28.64.52,0,1-.08,1.47-.25.46-.17.86-.39,1.18-.65"/>
  <path d="M318.24,19.8v-5.68s-6.3,0-6.3,0v5.68c0,.25-.14.38-.41.38h-1.99c-.24,0-.35-.13-.35-.38V6.55c0-.26.12-.4.35-.4h2.05c.07,0,.15.03.23.08.08.05.13.15.13.3v4.94s6.3,0,6.3,0v-4.91c0-.26.12-.4.35-.4h2.05c.07,0,.15.03.23.08.07.05.11.15.11.3v13.28c0,.25-.13.38-.4.38h-1.99c-.24,0-.35-.13-.35-.38"/>
  <path d="M140.2,30.1l-2.03,5.35h4s-1.98-5.35-1.98-5.35ZM133.6,40.1l5.34-13.28c.11-.23.27-.35.47-.35h1.59c.23,0,.38.12.47.35l5.33,13.28c.06.13.06.23,0,.3-.05.07-.14.1-.26.1h-2.06c-.23,0-.39-.11-.48-.34l-.91-2.26h-5.8s-.89,2.26-.89,2.26c-.09.23-.25.34-.48.34h-2.07c-.28,0-.36-.13-.25-.4"/>
  <path d="M150.95,26.88v8.08c0,.58.13,1.11.38,1.6.25.5.6.89,1.06,1.18.45.29.98.43,1.57.43s1.11-.14,1.56-.43c.45-.3.8-.69,1.05-1.18.26-.49.39-1.03.39-1.6v-8.08c0-.11.04-.21.11-.28.08-.08.19-.13.32-.13h1.87c.11,0,.22.04.32.11.11.08.16.18.16.3v8.08c0,.8-.15,1.54-.45,2.24-.3.7-.72,1.31-1.24,1.83-.52.52-1.14.94-1.83,1.24-.7.3-1.44.46-2.24.46s-1.54-.15-2.24-.46c-.7-.3-1.31-.72-1.84-1.24-.53-.52-.95-1.13-1.25-1.83-.3-.7-.45-1.44-.45-2.24v-8.08c0-.1.04-.19.11-.27.07-.09.17-.14.29-.14h1.94c.1,0,.2.04.3.13.1.08.15.17.15.28"/>
  <path d="M162.28,38.36c-.1-.11-.17-.23-.22-.34-.05-.12,0-.24.13-.37l1.26-1.25c.1-.07.18-.11.25-.11.06,0,.13.02.2.06.07.04.14.09.2.16.39.39.86.76,1.39,1.1.54.35,1.17.52,1.89.52s1.32-.19,1.74-.57c.42-.38.64-.8.64-1.27,0-.4-.15-.72-.45-.97-.3-.25-.66-.44-1.07-.58-.41-.14-.78-.25-1.12-.34-1.53-.45-2.7-1.01-3.5-1.67-.79-.66-1.19-1.52-1.19-2.59,0-.78.21-1.46.64-2.05.43-.59,1.03-1.05,1.8-1.38.77-.32,1.66-.49,2.67-.49.82,0,1.62.2,2.39.59.78.39,1.45.86,2,1.42.23.25.22.49-.02.74l-1.04,1.11c-.09.08-.18.11-.27.11-.08,0-.15-.02-.23-.07-.08-.05-.15-.1-.23-.16-.2-.17-.44-.36-.72-.56-.27-.2-.58-.38-.91-.52-.34-.14-.69-.22-1.07-.22-.32,0-.65.04-.99.11-.34.08-.63.22-.85.43-.22.21-.33.54-.33.97,0,.48.25.84.76,1.09.51.25,1.17.48,1.98.69.85.26,1.64.56,2.34.91.7.34,1.27.79,1.69,1.34.43.55.65,1.26.65,2.14s-.25,1.64-.75,2.29c-.5.65-1.15,1.15-1.94,1.51-.79.35-1.64.53-2.56.53-.97,0-1.92-.21-2.84-.64-.92-.43-1.69-.99-2.32-1.69"/>
  <path d="M173.57,28.63v-1.8c0-.23.12-.35.35-.35h9.93c.25,0,.38.12.38.35v1.8c0,.26-.12.39-.38.39h-3.63v11.11c0,.25-.12.38-.36.38h-2.04c-.24,0-.36-.13-.36-.38v-11.11s-3.54,0-3.54,0c-.24,0-.35-.13-.35-.39"/>
  <path d="M191.96,28.91h-2.96v4.23s2.96,0,2.96,0c.65,0,1.19-.2,1.63-.59.44-.39.66-.9.66-1.53,0-.59-.22-1.09-.66-1.5-.43-.41-.98-.61-1.63-.61M186.25,40.13v-13.28c0-.1.03-.18.08-.26.06-.07.15-.11.27-.11h6.02c.86,0,1.63.22,2.3.65.67.43,1.2,1.01,1.57,1.72.38.7.57,1.45.57,2.24s-.22,1.55-.66,2.25c-.44.7-1.01,1.25-1.72,1.66l2.57,5.11c.05.09.06.18.01.27-.05.09-.13.13-.26.13h-2.43c-.19,0-.34-.1-.43-.32l-2.25-4.54h-2.88v4.48c0,.25-.12.38-.38.38h-2.02c-.24,0-.35-.13-.35-.38"/>
  <path d="M204.28,30.1l-2.03,5.35h4s-1.98-5.35-1.98-5.35ZM197.68,40.1l5.34-13.28c.11-.23.27-.35.47-.35h1.59c.23,0,.38.12.47.35l5.33,13.28c.06.13.06.23,0,.3-.05.07-.14.1-.26.1h-2.06c-.23,0-.39-.11-.48-.34l-.91-2.26h-5.8s-.89,2.26-.89,2.26c-.09.23-.25.34-.48.34h-2.07c-.28,0-.36-.13-.25-.4"/>
  <path d="M212.47,40.08v-13.21c0-.11.04-.21.11-.3.08-.08.19-.12.32-.12h1.92c.26,0,.4.14.42.42v11.06s5.52,0,5.52,0c.11,0,.21.04.3.11.08.08.13.18.13.32v1.72c0,.27-.14.41-.42.42h-7.88c-.27,0-.41-.14-.41-.42"/>
  <path d="M223.31,40.13v-13.25c0-.26.13-.4.38-.4h2.04c.24,0,.36.13.36.4v13.25c0,.25-.12.38-.36.38h-2.04c-.25,0-.38-.13-.38-.38"/>
  <path d="M234.5,30.1l-2.03,5.35h4s-1.98-5.35-1.98-5.35ZM227.9,40.1l5.34-13.28c.11-.23.27-.35.47-.35h1.59c.23,0,.38.12.47.35l5.33,13.28c.06.13.06.23,0,.3-.05.07-.14.1-.26.1h-2.06c-.23,0-.39-.11-.48-.34l-.91-2.26h-5.8s-.89,2.26-.89,2.26c-.09.23-.25.34-.48.34h-2.07c-.28,0-.36-.13-.25-.4"/>
  <polygon class="st1" points="136.37 54.2 134.38 54.2 134.38 53.36 139.29 53.36 139.29 54.2 137.3 54.2 137.3 60.66 136.37 60.66 136.37 54.2"/>
  <polygon class="st1" points="142.03 53.36 142.97 53.36 142.97 56.49 145.9 56.49 145.9 53.36 146.84 53.36 146.84 60.66 145.9 60.66 145.9 57.34 142.97 57.34 142.97 60.66 142.03 60.66 142.03 53.36"/>
  <polygon class="st1" points="150.11 53.36 154.62 53.36 154.62 54.2 151.05 54.2 151.05 56.49 154.14 56.49 154.14 57.34 151.05 57.34 151.05 59.81 154.68 59.81 154.68 60.66 150.11 60.66 150.11 53.36"/>
  <path class="st1" d="M164.49,60.79c-1.92,0-2.88-1.26-2.88-3.78s.96-3.79,2.88-3.79c.77,0,1.39.24,1.85.72.46.47.69,1.16.69,2.06h-.96c0-.62-.15-1.1-.43-1.42-.29-.32-.67-.48-1.16-.48-.64,0-1.12.22-1.43.66-.31.44-.46,1.11-.46,2v.53c0,.89.15,1.55.46,1.99.32.44.79.66,1.43.66.5,0,.89-.15,1.18-.47.29-.32.44-.79.44-1.41h.93c0,.91-.23,1.59-.69,2.06-.46.46-1.07.69-1.85.69"/>
  <polygon class="st1" points="169.99 53.36 170.92 53.36 170.92 56.49 173.86 56.49 173.86 53.36 174.79 53.36 174.79 60.66 173.86 60.66 173.86 57.34 170.92 57.34 170.92 60.66 169.99 60.66 169.99 53.36"/>
  <g>
    <path class="st1" d="M181.37,58.18l-.98-3.25c-.03-.1-.07-.24-.1-.43-.04-.19-.06-.32-.07-.38h-.05c0,.06-.03.19-.07.38-.04.19-.08.33-.1.43l-.99,3.25h2.37ZM179.63,53.36h1.2s2.32,7.3,2.32,7.3h-1.01s-.51-1.63-.51-1.63h-2.89s-.51,1.63-.51,1.63h-.94s2.32-7.3,2.32-7.3Z"/>
    <path class="st1" d="M188.56,56.58c.37,0,.66-.11.89-.32.23-.22.35-.51.35-.88s-.11-.66-.32-.87c-.21-.21-.51-.31-.91-.31h-1.97v2.38s1.97,0,1.97,0ZM185.66,53.36h2.93c.7,0,1.24.18,1.62.54.37.36.57.85.57,1.48,0,.46-.12.85-.35,1.18-.23.33-.54.57-.95.7l1.47,3.4h-1.05s-1.35-3.22-1.35-3.22h-1.95v3.22h-.94s0-7.3,0-7.3Z"/>
  </g>
  <rect class="st1" x="193.74" y="53.36" width=".94" height="7.3"/>
  <polygon class="st1" points="199.39 54.2 197.4 54.2 197.4 53.36 202.31 53.36 202.31 54.2 200.32 54.2 200.32 60.66 199.39 60.66 199.39 54.2"/>
  <polygon class="st1" points="206.75 57.63 204.38 53.36 205.42 53.36 207.27 56.74 207.31 56.74 209.14 53.36 210.04 53.36 207.68 57.63 207.68 60.66 206.75 60.66 206.75 57.63"/>
  <polygon class="st1" points="218.29 54.2 216.3 54.2 216.3 53.36 221.22 53.36 221.22 54.2 219.23 54.2 219.23 60.66 218.29 60.66 218.29 54.2"/>
  <polygon class="st1" points="223.96 53.36 224.89 53.36 224.89 56.49 227.83 56.49 227.83 53.36 228.76 53.36 228.76 60.66 227.83 60.66 227.83 57.34 224.89 57.34 224.89 60.66 223.96 60.66 223.96 53.36"/>
  <path class="st1" d="M235.34,58.18l-.98-3.25c-.03-.1-.07-.24-.1-.43-.04-.19-.06-.32-.07-.38h-.05c0,.06-.03.19-.07.38-.04.19-.08.33-.1.43l-.99,3.25h2.37ZM233.59,53.36h1.2s2.32,7.3,2.32,7.3h-1.01s-.51-1.63-.51-1.63h-2.89s-.51,1.63-.51,1.63h-.94s2.32-7.3,2.32-7.3Z"/>
  <polygon class="st1" points="241.08 54.2 239.09 54.2 239.09 53.36 244 53.36 244 54.2 242.01 54.2 242.01 60.66 241.08 60.66 241.08 54.2"/>
  <path class="st1" d="M253.44,56.86h2.85s0,3.8,0,3.8h-.61s-.21-.81-.21-.81c-.42.62-1.05.94-1.88.94-.93,0-1.65-.32-2.14-.95-.49-.63-.74-1.58-.74-2.83s.25-2.19.76-2.83c.51-.64,1.24-.96,2.17-.96.79,0,1.43.23,1.92.68.49.45.73,1.09.73,1.94h-.96c0-.58-.15-1.02-.45-1.32-.3-.29-.71-.44-1.24-.44-.62,0-1.1.23-1.44.67-.34.45-.51,1.11-.51,1.99v.53c0,.88.16,1.54.49,1.99.32.44.79.66,1.41.66s1.04-.17,1.32-.51c.28-.34.43-.86.43-1.56v-.17s-1.89,0-1.89,0v-.82Z"/>
  <rect class="st1" x="259.51" y="53.36" width=".94" height="7.3"/>
  <polygon class="st1" points="263.04 53.36 264.08 53.36 265.89 59.63 265.93 59.63 267.8 53.36 268.7 53.36 266.47 60.66 265.27 60.66 263.04 53.36"/>
  <polygon class="st1" points="271.31 53.36 275.81 53.36 275.81 54.2 272.24 54.2 272.24 56.49 275.34 56.49 275.34 57.34 272.24 57.34 272.24 59.81 275.87 59.81 275.87 60.66 271.31 60.66 271.31 53.36"/>
  <path class="st1" d="M281.05,60.79c-.73,0-1.32-.18-1.78-.53-.46-.35-.68-.91-.68-1.66v-.21s.98,0,.98,0v.22c-.01.43.12.76.38.98.27.22.62.33,1.05.33.49,0,.87-.1,1.13-.31.27-.21.4-.51.4-.9,0-.26-.07-.47-.22-.64-.15-.17-.33-.3-.54-.4-.22-.1-.51-.21-.89-.34-.46-.15-.84-.3-1.12-.44-.29-.15-.53-.35-.73-.62-.2-.28-.3-.64-.3-1.09,0-.64.21-1.12.65-1.46.43-.34.99-.51,1.68-.51s1.23.17,1.65.51c.42.34.64.86.64,1.55v.13h-.97s0-.15,0-.15c0-.36-.12-.65-.37-.85-.25-.21-.55-.31-.92-.31-.41,0-.74.09-.99.26-.25.17-.37.43-.37.76,0,.25.07.45.21.61.14.16.33.28.54.38.21.09.51.2.88.32.46.16.84.3,1.12.44.29.14.54.35.74.62.21.27.31.62.31,1.05,0,.79-.23,1.36-.67,1.71-.45.36-1.05.53-1.8.53"/>
  <rect class="st2" x="134.45" y="46.29" width="32.58" height="3.31"/>
</svg>